<svg width="32" height="32" viewBox="0 0 32 32" fill="none" xmlns="http://www.w3.org/2000/svg">
<path d="M14.9105 4.97832C10.1458 5.44973 6.1974 8.9584 5.18498 13.6282C5.04261 14.2736 4.92871 15.1721 4.92871 15.634V15.7891L5.77345 15.7669C8.89297 15.6878 10.5413 15.4664 11.8353 14.9538C13.3096 14.3685 14.3695 13.3086 14.9517 11.8375C15.3376 10.8662 15.5686 9.61331 15.6857 7.83841C15.7205 7.28791 15.7806 5.706 15.7806 5.23459V4.9277L15.5686 4.93087C15.4484 4.93403 15.1541 4.95618 14.9105 4.97832Z" fill="#161515"/>
<path d="M16.4453 5.42442C16.4453 6.09198 16.4991 7.39231 16.556 8.17061C16.7301 10.5087 17.135 11.9577 17.9291 13.0713C18.2993 13.5934 18.9479 14.1945 19.4984 14.5204C20.8905 15.3493 22.6147 15.6625 26.3259 15.7669L27.0757 15.7891V15.6499C27.0757 15.1848 26.9587 14.2609 26.8194 13.6282C25.8703 9.25263 22.3363 5.86735 17.9007 5.08589C17.6033 5.03527 16.6541 4.9277 16.4864 4.9277C16.4548 4.9277 16.4453 5.02894 16.4453 5.42442Z" fill="#161515"/>
<path d="M4.94476 16.7001C5.16939 19.788 6.52667 22.4645 8.88371 24.4831C10.3201 25.7169 12.3006 26.625 14.2147 26.9318C14.5912 26.9951 15.3822 27.0742 15.6195 27.0742H15.7903L15.7682 26.3402C15.7049 24.1509 15.5942 22.8917 15.3664 21.797C15.069 20.3701 14.5849 19.3735 13.7908 18.5509C12.3607 17.0766 10.3897 16.5514 5.93187 16.4565L4.92578 16.4343L4.94476 16.7001Z" fill="#161515"/>
<path d="M25.7305 16.466C21.5289 16.6052 19.637 17.1778 18.2702 18.7154C17.0901 20.0442 16.6187 21.8255 16.4763 25.5081C16.432 26.6534 16.4352 27.0742 16.4858 27.0742C16.6472 27.0742 17.571 26.9698 17.8779 26.916C19.1086 26.7009 20.3362 26.2706 21.3866 25.6821C24.1739 24.1192 26.1766 21.411 26.8346 18.3105C26.9422 17.8043 27.0688 16.8266 27.0751 16.466C27.0751 16.447 26.3442 16.4438 25.7305 16.466Z" fill="#161515"/>
</svg>
