<svg width="32" height="32" viewBox="0 0 32 32" fill="none" xmlns="http://www.w3.org/2000/svg">
<path d="M18.9337 3.83301C17.2982 3.83301 15.7296 4.48271 14.5732 5.63918C13.4167 6.79566 12.767 8.36417 12.767 9.99967V13.433H9.46699C9.30131 13.433 9.16699 13.5673 9.16699 13.733V18.2663C9.16699 18.432 9.30131 18.5663 9.46699 18.5663H12.767V27.8663C12.767 28.032 12.9013 28.1663 13.067 28.1663H17.6003C17.766 28.1663 17.9003 28.032 17.9003 27.8663V18.5663H21.2296C21.3672 18.5663 21.4872 18.4727 21.5206 18.3391L22.6539 13.8058C22.7013 13.6164 22.5581 13.433 22.3629 13.433H17.9003V9.99967C17.9003 9.72562 18.0092 9.46279 18.203 9.269C18.3968 9.07521 18.6596 8.96634 18.9337 8.96634H22.4003C22.566 8.96634 22.7003 8.83203 22.7003 8.66634V4.13301C22.7003 3.96732 22.566 3.83301 22.4003 3.83301H18.9337Z" fill="#4267B2"/>
</svg>
