<svg width="303" height="66" viewBox="0 0 303 66" fill="none" xmlns="http://www.w3.org/2000/svg">
<path d="M20.5036 33.0135C16.0851 23.8684 19.0676 13.1624 28.1533 8.53502C28.1533 8.53502 30.6663 7.16597 33.1794 6.48145C19.1504 7.30287 8.04883 18.8303 8.04883 32.9314C8.04883 47.5803 20.0342 59.4636 34.8088 59.4636V41.0635C31.9643 41.0909 24.0936 40.4611 20.5036 33.0135Z" fill="#186EE4"/>
<path d="M49.0034 32.904C53.4219 42.0493 50.4393 52.7552 41.3538 57.3827C41.3538 57.3827 38.8407 58.7517 36.3277 59.4636C50.3565 58.6149 61.4582 47.0874 61.4582 32.9861C61.4582 18.3374 49.4729 6.48145 34.6982 6.48145V24.8814C37.5428 24.854 45.4132 25.4564 49.0034 32.904Z" fill="#D91A3C"/>
<path d="M81.7872 7.80273H87.9617L100.267 39.512H93.9404L91.4403 32.9804H78.3955L75.7864 39.512H69.46L81.7872 7.80273ZM84.9179 16.2097L80.6565 27.0956H89.1574L84.9179 16.2097ZM125.487 39.512H119.443L113.529 24.7028L107.507 39.512H101.485L111.573 16.0588H115.399L125.487 39.512ZM128.618 16.0588H134.553V24.8322L142.728 16.0588H149.968L139.423 27.4837L150.098 39.512H142.228L135.184 31.2344L134.553 31.9673V39.512H128.618V16.0588ZM163.643 15.4552C165.875 15.4552 167.969 16.0085 169.926 17.115C171.897 18.2216 173.434 19.7233 174.535 21.6203C175.637 23.5173 176.188 25.565 176.188 27.7638C176.188 29.9769 175.63 32.0463 174.514 33.972C173.412 35.8977 171.905 37.4066 169.991 38.4988C168.078 39.5767 165.969 40.1155 163.665 40.1155C160.273 40.1155 157.374 38.9226 154.968 36.5371C152.577 34.1373 151.381 31.2271 151.381 27.8068C151.381 24.1424 152.736 21.0886 155.447 18.6455C157.824 16.5186 160.556 15.4552 163.643 15.4552ZM163.73 20.9951C161.889 20.9951 160.353 21.6346 159.121 22.9136C157.903 24.1784 157.295 25.8021 157.295 27.7854C157.295 29.8261 157.896 31.4788 159.099 32.7434C160.317 34.008 161.853 34.6401 163.708 34.6401C165.564 34.6401 167.107 34.0007 168.339 32.7217C169.571 31.4428 170.187 29.7972 170.187 27.7854C170.187 25.7734 169.578 24.1424 168.361 22.8921C167.158 21.6275 165.614 20.9951 163.73 20.9951Z" fill="#186DE4"/>
<path d="M211.199 13.3855L206.938 17.4165C204.039 14.3843 200.778 12.8682 197.154 12.8682C194.096 12.8682 191.516 13.9029 189.414 15.9723C187.327 18.0417 186.284 20.5925 186.284 23.6247C186.284 25.7372 186.747 27.6125 187.675 29.2508C188.602 30.8891 189.914 32.1754 191.61 33.1095C193.306 34.0437 195.19 34.5105 197.263 34.5105C199.031 34.5105 200.647 34.1874 202.111 33.5406C203.575 32.8795 205.184 31.6869 206.938 29.9623L211.069 34.2304C208.706 36.5155 206.474 38.1034 204.372 38.9943C202.271 39.8709 199.872 40.3093 197.176 40.3093C192.204 40.3093 188.132 38.75 184.957 35.6316C181.798 32.4987 180.218 28.4893 180.218 23.6031C180.218 20.4416 180.935 17.6321 182.37 15.1747C183.819 12.7173 185.885 10.7413 188.566 9.24674C191.262 7.75216 194.161 7.00488 197.263 7.00488C199.901 7.00488 202.437 7.55816 204.872 8.66471C207.322 9.77128 209.431 11.3449 211.199 13.3855ZM221.831 39.5117H215.873V16.0585H236.614V39.5117H230.656V21.7278H221.831V39.5117ZM260.117 16.0585H266.03V39.5117H260.117V37.0327C258.957 38.1249 257.791 38.9153 256.617 39.4038C255.458 39.8782 254.195 40.1152 252.833 40.1152C249.776 40.1152 247.131 38.944 244.898 36.6016C242.665 34.2448 241.55 31.3202 241.55 27.8282C241.55 24.2068 242.63 21.2392 244.789 18.9255C246.949 16.6118 249.573 15.4549 252.659 15.4549C254.079 15.4549 255.413 15.7208 256.66 16.2525C257.906 16.7842 259.06 17.5818 260.117 18.6453V16.0585ZM253.877 20.8871C252.036 20.8871 250.506 21.5338 249.291 22.8272C248.073 24.1061 247.463 25.7515 247.463 27.7635C247.463 29.7899 248.08 31.4569 249.311 32.7645C250.557 34.0724 252.087 34.7262 253.899 34.7262C255.769 34.7262 257.319 34.0867 258.552 32.8078C259.783 31.5143 260.4 29.8259 260.4 27.7419C260.4 25.7014 259.783 24.0488 258.552 22.7839C257.319 21.5194 255.76 20.8871 253.877 20.8871ZM295.186 20.8009L290.25 23.4954C289.322 22.5325 288.402 21.8643 287.49 21.4907C286.59 21.117 285.533 20.9302 284.315 20.9302C282.097 20.9302 280.301 21.5913 278.923 22.9133C277.56 24.2211 276.879 25.9025 276.879 27.9575C276.879 29.955 277.538 31.5862 278.858 32.8508C280.176 34.1154 281.908 34.7478 284.054 34.7478C286.706 34.7478 288.772 33.8496 290.25 32.0533L294.925 35.222C292.387 38.4842 288.808 40.1152 284.184 40.1152C280.025 40.1152 276.763 38.8937 274.401 36.4508C272.052 34.0077 270.879 31.1478 270.879 27.8712C270.879 25.6007 271.451 23.5097 272.596 21.5985C273.742 19.6871 275.336 18.1854 277.38 17.0932C279.437 16.001 281.735 15.4549 284.27 15.4549C286.619 15.4549 288.727 15.922 290.597 16.8561C292.468 17.7758 293.997 19.0907 295.186 20.8009Z" fill="#D91A3C"/>
<path d="M71.1777 46.7792H72.6536V51.621C73.3279 51.621 73.8021 51.4928 74.0759 51.2365C74.3498 50.975 74.6997 50.3516 75.1256 49.366C75.4351 48.642 75.6887 48.1317 75.8864 47.835C76.0892 47.5332 76.3757 47.2818 76.7459 47.0807C77.1162 46.8746 77.5245 46.7715 77.9706 46.7715C78.5386 46.7715 78.8378 46.7766 78.8683 46.7867V48.0537C78.8175 48.0537 78.7187 48.0513 78.5717 48.0462C78.4094 48.0412 78.3104 48.0387 78.275 48.0387C77.8034 48.0387 77.4535 48.1517 77.2253 48.378C76.992 48.6043 76.7257 49.087 76.4265 49.826C76.0513 50.7613 75.7343 51.3522 75.4756 51.5985C75.2169 51.8398 74.9077 52.0334 74.5477 52.1793C75.2677 52.3753 75.9776 53.034 76.6776 54.1553L78.9747 57.8359H77.1416L75.2779 54.8341C74.7657 54.0043 74.3371 53.4362 73.9922 53.1296C73.6476 52.8179 73.2012 52.6618 72.6536 52.6618V57.8359H71.1777V46.7792Z" fill="#161515"/>
<path d="M80.7324 49.8262H87.0919V57.836H85.73V50.9499H82.1016V54.9397C82.1016 55.8699 82.0713 56.4833 82.0103 56.78C81.9495 57.0767 81.7821 57.3356 81.5083 57.5568C81.2345 57.7782 80.8391 57.8888 80.3217 57.8888C80.0022 57.8888 79.6346 57.8687 79.2188 57.8283V56.697H79.8196C80.1037 56.697 80.3065 56.6694 80.4281 56.614C80.5499 56.5538 80.6311 56.4608 80.6716 56.335C80.7122 56.2094 80.7324 55.7995 80.7324 55.1057V49.8262Z" fill="#161515"/>
<path d="M89.1602 49.8262H90.5293V55.9353L94.3252 49.8262H95.801V57.836H94.4318V51.7645L90.636 57.836H89.1602V49.8262Z" fill="#161515"/>
<path d="M97.8711 49.8262H99.2405V53.1599H103.036V49.8262H104.406V57.836H103.036V54.2837H99.2405V57.836H97.8711V49.8262Z" fill="#161515"/>
<path d="M106.474 49.8262H107.843V55.9353L111.639 49.8262H113.114V57.836H111.745V51.7645L107.949 57.836H106.474V49.8262Z" fill="#161515"/>
<path d="M115.168 49.8262H116.537V53.288C116.973 53.288 117.278 53.2052 117.45 53.0392C117.628 52.8732 117.886 52.3905 118.226 51.5912C118.495 50.9577 118.713 50.5402 118.88 50.3392C119.048 50.1381 119.24 50.0023 119.458 49.9319C119.676 49.8615 120.026 49.8262 120.508 49.8262H120.782V50.9499L120.402 50.9424C120.041 50.9424 119.811 50.9952 119.709 51.1009C119.603 51.2115 119.44 51.5408 119.223 52.0889C119.015 52.6119 118.824 52.9739 118.652 53.175C118.48 53.376 118.213 53.5595 117.853 53.7255C118.442 53.8813 119.019 54.4243 119.588 55.3545L121.086 57.836H119.58L118.119 55.3545C117.82 54.8567 117.559 54.53 117.336 54.3742C117.113 54.2133 116.847 54.1327 116.537 54.1327V57.836H115.168V49.8262Z" fill="#161515"/>
<path d="M127.614 56.8483C127.106 57.2757 126.617 57.5774 126.145 57.7534C125.679 57.9293 125.177 58.0174 124.639 58.0174C123.752 58.0174 123.07 57.8037 122.593 57.3761C122.116 56.9437 121.878 56.3932 121.878 55.7246C121.878 55.3323 121.967 54.9754 122.144 54.6536C122.327 54.3267 122.563 54.0653 122.852 53.8691C123.146 53.6731 123.475 53.5247 123.841 53.4241C124.109 53.3539 124.515 53.2859 125.058 53.2205C126.163 53.0899 126.977 52.934 127.499 52.7528C127.504 52.5669 127.507 52.4486 127.507 52.3985C127.507 51.8454 127.378 51.4558 127.119 51.2295C126.769 50.9227 126.249 50.7693 125.56 50.7693C124.916 50.7693 124.439 50.8825 124.13 51.1088C123.825 51.3299 123.6 51.7246 123.453 52.2928L122.114 52.1118C122.235 51.5436 122.436 51.086 122.715 50.7393C122.994 50.3872 123.397 50.1183 123.924 49.9322C124.452 49.7411 125.063 49.6455 125.757 49.6455C126.447 49.6455 127.008 49.7261 127.439 49.887C127.87 50.0479 128.187 50.2514 128.389 50.4978C128.592 50.7393 128.734 51.0459 128.815 51.418C128.861 51.6493 128.884 52.0665 128.884 52.67V54.4801C128.884 55.742 128.912 56.5415 128.968 56.8784C129.028 57.2103 129.145 57.5295 129.317 57.8363H127.887C127.745 57.5547 127.654 57.2254 127.614 56.8483ZM127.499 53.8163C127.002 54.0174 126.257 54.1885 125.263 54.3293C124.7 54.4096 124.302 54.5002 124.069 54.6008C123.836 54.7012 123.655 54.8496 123.529 55.0458C123.402 55.2367 123.338 55.4504 123.338 55.6868C123.338 56.0488 123.475 56.3506 123.749 56.5918C124.028 56.8331 124.434 56.9539 124.966 56.9539C125.494 56.9539 125.963 56.8406 126.374 56.6144C126.784 56.3832 127.086 56.0689 127.279 55.6716C127.426 55.365 127.499 54.9125 127.499 54.3141V53.8163Z" fill="#161515"/>
<path d="M136.536 46.7793H143.321V56.5312H144.325V60.4152H143.009V57.836H135.638V60.4152H134.322V56.5312H135.189C136.087 55.1887 136.536 52.476 136.536 48.3931V46.7793ZM141.845 48.0841H137.958V48.6496C137.958 49.5899 137.872 50.877 137.7 52.5111C137.532 54.1402 137.2 55.4803 136.703 56.5312H141.845V48.0841Z" fill="#161515"/>
<path d="M145.58 53.8313C145.58 52.3482 145.996 51.2496 146.828 50.5355C147.523 49.9422 148.369 49.6455 149.368 49.6455C150.479 49.6455 151.387 50.0075 152.092 50.7315C152.796 51.4507 153.149 52.4462 153.149 53.7183C153.149 54.7491 152.992 55.561 152.677 56.1543C152.368 56.7426 151.914 57.2002 151.316 57.5271C150.722 57.8538 150.073 58.0174 149.368 58.0174C148.237 58.0174 147.322 57.6578 146.622 56.9388C145.928 56.2197 145.58 55.184 145.58 53.8313ZM146.987 53.8313C146.987 54.8571 147.213 55.6263 147.664 56.1393C148.116 56.647 148.684 56.9011 149.368 56.9011C150.048 56.9011 150.613 56.6446 151.065 56.1318C151.516 55.6188 151.742 54.837 151.742 53.7861C151.742 52.7956 151.513 52.0465 151.057 51.5385C150.606 51.0258 150.043 50.7693 149.368 50.7693C148.684 50.7693 148.116 51.0233 147.664 51.531C147.213 52.0389 146.987 52.8058 146.987 53.8313Z" fill="#161515"/>
<path d="M154.754 49.8262H156.123V53.288C156.559 53.288 156.864 53.2052 157.036 53.0392C157.213 52.8732 157.472 52.3905 157.812 51.5912C158.08 50.9577 158.299 50.5402 158.466 50.3392C158.633 50.1381 158.826 50.0023 159.044 49.9319C159.262 49.8615 159.612 49.8262 160.094 49.8262H160.368V50.9499L159.987 50.9424C159.627 50.9424 159.397 50.9952 159.295 51.1009C159.189 51.2115 159.026 51.5408 158.808 52.0889C158.6 52.6119 158.41 52.9739 158.238 53.175C158.065 53.376 157.799 53.5595 157.439 53.7255C158.027 53.8813 158.605 54.4243 159.173 55.3545L160.672 57.836H159.166L157.705 55.3545C157.406 54.8567 157.145 54.53 156.922 54.3742C156.699 54.2133 156.432 54.1327 156.123 54.1327V57.836H154.754V49.8262Z" fill="#161515"/>
<path d="M161.022 49.8262H167.587V50.9499H164.986V57.836H163.624V50.9499H161.022V49.8262Z" fill="#161515"/>
<path d="M168.202 53.8313C168.202 52.3482 168.618 51.2496 169.45 50.5355C170.144 49.9422 170.991 49.6455 171.99 49.6455C173.101 49.6455 174.009 50.0075 174.713 50.7315C175.418 51.4507 175.771 52.4462 175.771 53.7183C175.771 54.7491 175.614 55.561 175.299 56.1543C174.99 56.7426 174.536 57.2002 173.938 57.5271C173.344 57.8538 172.695 58.0174 171.99 58.0174C170.859 58.0174 169.944 57.6578 169.244 56.9388C168.549 56.2197 168.202 55.184 168.202 53.8313ZM169.609 53.8313C169.609 54.8571 169.835 55.6263 170.286 56.1393C170.738 56.647 171.306 56.9011 171.99 56.9011C172.67 56.9011 173.235 56.6446 173.687 56.1318C174.138 55.6188 174.364 54.837 174.364 53.7861C174.364 52.7956 174.135 52.0465 173.679 51.5385C173.228 51.0258 172.665 50.7693 171.99 50.7693C171.306 50.7693 170.738 51.0233 170.286 51.531C169.835 52.0389 169.609 52.8058 169.609 53.8313Z" fill="#161515"/>
<path d="M177.385 60.9059V49.8265H178.632V50.8675C178.926 50.46 179.259 50.1558 179.629 49.9548C179.999 49.7486 180.448 49.6455 180.975 49.6455C181.665 49.6455 182.274 49.8217 182.801 50.1735C183.328 50.5256 183.726 51.0233 183.995 51.6668C184.264 52.3054 184.398 53.0069 184.398 53.7711C184.398 54.5907 184.249 55.3299 183.949 55.9884C183.655 56.6422 183.224 57.145 182.656 57.4969C182.093 57.8439 181.5 58.0174 180.876 58.0174C180.42 58.0174 180.009 57.9218 179.644 57.7306C179.284 57.5397 178.987 57.2982 178.754 57.0066V60.9059H177.385ZM178.625 53.8766C178.625 54.9074 178.835 55.6692 179.256 56.1618C179.677 56.6548 180.187 56.9011 180.785 56.9011C181.394 56.9011 181.913 56.647 182.345 56.1393C182.781 55.6263 182.999 54.8346 182.999 53.7636C182.999 52.7429 182.786 51.9787 182.36 51.4708C181.939 50.9629 181.434 50.709 180.846 50.709C180.263 50.709 179.746 50.9805 179.294 51.5235C178.848 52.0615 178.625 52.846 178.625 53.8766Z" fill="#161515"/>
<path d="M191.327 56.8483C190.82 57.2757 190.331 57.5774 189.859 57.7534C189.393 57.9293 188.891 58.0174 188.353 58.0174C187.466 58.0174 186.784 57.8037 186.307 57.3761C185.83 56.9437 185.592 56.3932 185.592 55.7246C185.592 55.3323 185.681 54.9754 185.858 54.6536C186.041 54.3267 186.276 54.0653 186.566 53.8691C186.86 53.6731 187.189 53.5247 187.555 53.4241C187.823 53.3539 188.229 53.2859 188.771 53.2205C189.877 53.0899 190.691 52.934 191.213 52.7528C191.218 52.5669 191.221 52.4486 191.221 52.3985C191.221 51.8454 191.092 51.4558 190.833 51.2295C190.483 50.9227 189.963 50.7693 189.274 50.7693C188.63 50.7693 188.153 50.8825 187.843 51.1088C187.539 51.3299 187.314 51.7246 187.166 52.2928L185.828 52.1118C185.949 51.5436 186.15 51.086 186.429 50.7393C186.708 50.3872 187.111 50.1183 187.638 49.9322C188.165 49.7411 188.777 49.6455 189.471 49.6455C190.161 49.6455 190.721 49.7261 191.152 49.887C191.583 50.0479 191.9 50.2514 192.103 50.4978C192.306 50.7393 192.448 51.0459 192.529 51.418C192.575 51.6493 192.598 52.0665 192.598 52.67V54.4801C192.598 55.742 192.626 56.5415 192.681 56.8784C192.742 57.2103 192.859 57.5295 193.031 57.8363H191.601C191.459 57.5547 191.368 57.2254 191.327 56.8483ZM191.213 53.8163C190.716 54.0174 189.971 54.1885 188.977 54.3293C188.414 54.4096 188.016 54.5002 187.783 54.6008C187.549 54.7012 187.369 54.8496 187.243 55.0458C187.116 55.2367 187.052 55.4504 187.052 55.6868C187.052 56.0488 187.189 56.3506 187.463 56.5918C187.742 56.8331 188.148 56.9539 188.68 56.9539C189.208 56.9539 189.677 56.8406 190.088 56.6144C190.498 56.3832 190.8 56.0689 190.993 55.6716C191.14 55.365 191.213 54.9125 191.213 54.3141V53.8163Z" fill="#161515"/>
<path d="M199.254 46.7793H208.024V57.836H206.541V48.0841H200.729V57.836H199.254V46.7793Z" fill="#161515"/>
<path d="M209.752 53.8313C209.752 52.3482 210.168 51.2496 211 50.5355C211.694 49.9422 212.541 49.6455 213.54 49.6455C214.651 49.6455 215.559 50.0075 216.263 50.7315C216.968 51.4507 217.321 52.4462 217.321 53.7183C217.321 54.7491 217.164 55.561 216.849 56.1543C216.54 56.7426 216.086 57.2002 215.488 57.5271C214.894 57.8538 214.245 58.0174 213.54 58.0174C212.409 58.0174 211.494 57.6578 210.794 56.9388C210.099 56.2197 209.752 55.184 209.752 53.8313ZM211.159 53.8313C211.159 54.8571 211.385 55.6263 211.836 56.1393C212.288 56.647 212.856 56.9011 213.54 56.9011C214.22 56.9011 214.785 56.6446 215.236 56.1318C215.688 55.6188 215.913 54.837 215.913 53.7861C215.913 52.7956 215.685 52.0465 215.229 51.5385C214.778 51.0258 214.215 50.7693 213.54 50.7693C212.856 50.7693 212.288 51.0233 211.836 51.531C211.385 52.0389 211.159 52.8058 211.159 53.8313Z" fill="#161515"/>
<path d="M219.253 49.8262H225.612V57.836H224.25V50.9499H220.622V54.9397C220.622 55.8699 220.592 56.4833 220.531 56.78C220.47 57.0767 220.303 57.3356 220.029 57.5568C219.755 57.7782 219.36 57.8888 218.842 57.8888C218.523 57.8888 218.155 57.8687 217.739 57.8283V56.697H218.34C218.624 56.697 218.827 56.6694 218.949 56.614C219.07 56.5538 219.152 56.4608 219.192 56.335C219.233 56.2094 219.253 55.7995 219.253 55.1057V49.8262Z" fill="#161515"/>
<path d="M227.68 49.8262H229.049V55.9353L232.845 49.8262H234.321V57.836H232.952V51.7645L229.156 57.836H227.68V49.8262Z" fill="#161515"/>
<path d="M236.376 49.8262H237.745V53.288C238.182 53.288 238.484 53.2052 238.658 53.0392C238.836 52.8732 239.094 52.3905 239.433 51.5912C239.702 50.9577 239.92 50.5402 240.087 50.3392C240.254 50.1381 240.448 50.0023 240.666 49.9319C240.884 49.8615 241.234 49.8262 241.715 49.8262H241.988V50.9499L241.61 50.9424C241.249 50.9424 241.018 50.9952 240.918 51.1009C240.811 51.2115 240.648 51.5408 240.43 52.0889C240.223 52.6119 240.032 52.9739 239.86 53.175C239.686 53.376 239.422 53.5595 239.061 53.7255C239.649 53.8813 240.227 54.4243 240.795 55.3545L242.293 57.836H240.789L239.328 55.3545C239.028 54.8567 238.767 54.53 238.544 54.3742C238.32 54.2133 238.055 54.1327 237.745 54.1327V57.836H236.376V49.8262Z" fill="#161515"/>
<path d="M248.82 56.8483C248.313 57.2757 247.823 57.5774 247.351 57.7534C246.886 57.9293 246.382 58.0174 245.846 58.0174C244.958 58.0174 244.276 57.8037 243.8 57.3761C243.321 56.9437 243.083 56.3932 243.083 55.7246C243.083 55.3323 243.172 54.9754 243.35 54.6536C243.533 54.3267 243.769 54.0653 244.058 53.8691C244.352 53.6731 244.681 53.5247 245.047 53.4241C245.316 53.3539 245.721 53.2859 246.264 53.2205C247.369 53.0899 248.183 52.934 248.704 52.7528C248.711 52.5669 248.713 52.4486 248.713 52.3985C248.713 51.8454 248.584 51.4558 248.326 51.2295C247.974 50.9227 247.455 50.7693 246.765 50.7693C246.122 50.7693 245.645 50.8825 245.336 51.1088C245.031 51.3299 244.806 51.7246 244.659 52.2928L243.319 52.1118C243.441 51.5436 243.642 51.086 243.92 50.7393C244.201 50.3872 244.604 50.1183 245.131 49.9322C245.657 49.7411 246.269 49.6455 246.963 49.6455C247.654 49.6455 248.212 49.7261 248.644 49.887C249.076 50.0479 249.392 50.2514 249.595 50.4978C249.798 50.7393 249.94 51.0459 250.022 51.418C250.067 51.6493 250.089 52.0665 250.089 52.67V54.4801C250.089 55.742 250.118 56.5415 250.174 56.8784C250.234 57.2103 250.352 57.5295 250.523 57.8363H249.094C248.952 57.5547 248.86 57.2254 248.82 56.8483ZM248.704 53.8163C248.208 54.0174 247.462 54.1885 246.469 54.3293C245.906 54.4096 245.507 54.5002 245.274 54.6008C245.042 54.7012 244.862 54.8496 244.735 55.0458C244.608 55.2367 244.543 55.4504 244.543 55.6868C244.543 56.0488 244.682 56.3506 244.955 56.5918C245.234 56.8331 245.639 56.9539 246.173 56.9539C246.701 56.9539 247.168 56.8406 247.58 56.6144C247.99 56.3832 248.293 56.0689 248.484 55.6716C248.631 55.365 248.704 54.9125 248.704 54.3141V53.8163Z" fill="#161515"/>
<path d="M252.221 60.9059V49.8265H253.467V50.8675C253.761 50.46 254.095 50.1558 254.465 49.9548C254.834 49.7486 255.284 49.6455 255.812 49.6455C256.5 49.6455 257.11 49.8217 257.637 50.1735C258.165 50.5256 258.561 51.0233 258.831 51.6668C259.1 52.3054 259.234 53.0069 259.234 53.7711C259.234 54.5907 259.084 55.3299 258.786 55.9884C258.492 56.6422 258.06 57.145 257.493 57.4969C256.929 57.8439 256.335 58.0174 255.712 58.0174C255.255 58.0174 254.846 57.9218 254.48 57.7306C254.12 57.5397 253.824 57.2982 253.59 57.0066V60.9059H252.221ZM253.461 53.8766C253.461 54.9074 253.67 55.6692 254.093 56.1618C254.514 56.6548 255.021 56.9011 255.62 56.9011C256.23 56.9011 256.749 56.647 257.181 56.1393C257.617 55.6263 257.835 54.8346 257.835 53.7636C257.835 52.7429 257.622 51.9787 257.196 51.4708C256.773 50.9629 256.27 50.709 255.683 50.709C255.099 50.709 254.581 50.9805 254.131 51.5235C253.683 52.0615 253.461 52.846 253.461 53.8766Z" fill="#161515"/>
<path d="M260.9 49.8262H267.274V57.836H265.905V50.9499H262.27V57.836H260.9V49.8262Z" fill="#161515"/>
<path d="M268.826 53.8313C268.826 52.3482 269.242 51.2496 270.073 50.5355C270.768 49.9422 271.616 49.6455 272.613 49.6455C273.724 49.6455 274.632 50.0075 275.338 50.7315C276.042 51.4507 276.396 52.4462 276.396 53.7183C276.396 54.7491 276.238 55.561 275.924 56.1543C275.614 56.7426 275.16 57.2002 274.561 57.5271C273.969 57.8538 273.319 58.0174 272.613 58.0174C271.482 58.0174 270.567 57.6578 269.868 56.9388C269.173 56.2197 268.826 55.184 268.826 53.8313ZM270.233 53.8313C270.233 54.8571 270.458 55.6263 270.91 56.1393C271.362 56.647 271.93 56.9011 272.613 56.9011C273.294 56.9011 273.86 56.6446 274.31 56.1318C274.762 55.6188 274.986 54.837 274.986 53.7861C274.986 52.7956 274.759 52.0465 274.303 51.5385C273.851 51.0258 273.288 50.7693 272.613 50.7693C271.93 50.7693 271.362 51.0233 270.91 51.531C270.458 52.0389 270.233 52.8058 270.233 53.8313Z" fill="#161515"/>
<path d="M278.015 49.8262H281.172C281.949 49.8262 282.523 49.8915 282.899 50.0224C283.28 50.148 283.603 50.3818 283.872 50.7237C284.146 51.0656 284.284 51.4755 284.284 51.9532C284.284 52.3353 284.202 52.6697 284.039 52.9562C283.883 53.2379 283.645 53.4741 283.324 53.6652C283.705 53.7908 284.019 54.0272 284.268 54.3742C284.522 54.7161 284.649 55.1234 284.649 55.596C284.598 56.3551 284.324 56.9184 283.828 57.2853C283.329 57.6524 282.608 57.836 281.659 57.836H278.015V49.8262ZM279.384 53.1975H280.844C281.428 53.1975 281.828 53.1674 282.046 53.107C282.265 53.0467 282.461 52.926 282.632 52.745C282.806 52.5591 282.89 52.3377 282.89 52.0814C282.89 51.6589 282.739 51.3649 282.434 51.1989C282.136 51.0329 281.621 50.9499 280.891 50.9499H279.384V53.1975ZM279.384 56.7198H281.187C281.964 56.7198 282.496 56.6317 282.786 56.4557C283.073 56.2747 283.226 55.9655 283.242 55.528C283.242 55.2717 283.157 55.0353 282.99 54.819C282.823 54.5978 282.605 54.4596 282.336 54.4042C282.067 54.344 281.637 54.3137 281.042 54.3137H279.384V56.7198Z" fill="#161515"/>
<path d="M291.372 56.8483C290.864 57.2757 290.377 57.5774 289.905 57.7534C289.437 57.9293 288.936 58.0174 288.397 58.0174C287.511 58.0174 286.828 57.8037 286.351 57.3761C285.875 56.9437 285.637 56.3932 285.637 55.7246C285.637 55.3323 285.726 54.9754 285.904 54.6536C286.086 54.3267 286.32 54.0653 286.61 53.8691C286.903 53.6731 287.233 53.5247 287.598 53.4241C287.867 53.3539 288.273 53.2859 288.816 53.2205C289.922 53.0899 290.735 52.934 291.258 52.7528C291.263 52.5669 291.265 52.4486 291.265 52.3985C291.265 51.8454 291.136 51.4558 290.877 51.2295C290.528 50.9227 290.007 50.7693 289.319 50.7693C288.673 50.7693 288.197 50.8825 287.888 51.1088C287.585 51.3299 287.358 51.7246 287.211 52.2928L285.873 52.1118C285.995 51.5436 286.193 51.086 286.474 50.7393C286.752 50.3872 287.155 50.1183 287.683 49.9322C288.21 49.7411 288.82 49.6455 289.515 49.6455C290.205 49.6455 290.766 49.7261 291.198 49.887C291.628 50.0479 291.946 50.2514 292.149 50.4978C292.351 50.7393 292.494 51.0459 292.574 51.418C292.621 51.6493 292.643 52.0665 292.643 52.67V54.4801C292.643 55.742 292.67 56.5415 292.725 56.8784C292.788 57.2103 292.903 57.5295 293.077 57.8363H291.646C291.503 57.5547 291.412 57.2254 291.372 56.8483ZM291.258 53.8163C290.762 54.0174 290.016 54.1885 289.021 54.3293C288.46 54.4096 288.061 54.5002 287.827 54.6008C287.594 54.7012 287.413 54.8496 287.286 55.0458C287.16 55.2367 287.097 55.4504 287.097 55.6868C287.097 56.0488 287.233 56.3506 287.507 56.5918C287.787 56.8331 288.193 56.9539 288.725 56.9539C289.252 56.9539 289.722 56.8406 290.132 56.6144C290.543 56.3832 290.844 56.0689 291.038 55.6716C291.185 55.365 291.258 54.9125 291.258 54.3141V53.8163Z" fill="#161515"/>
</svg>
