<svg width="32" height="32" viewBox="0 0 32 32" fill="none" xmlns="http://www.w3.org/2000/svg">
<path fill-rule="evenodd" clip-rule="evenodd" d="M16.0036 16.4312C19.799 16.4312 22.8849 13.3438 22.8849 9.54982C22.8849 5.75434 19.799 2.66699 16.0036 2.66699C12.2081 2.66699 9.12222 5.75434 9.12222 9.54982C9.12222 13.3438 12.2081 16.4312 16.0036 16.4312ZM18.788 22.0445C20.1894 21.7246 21.5405 21.1705 22.7849 20.3898C23.7256 19.7957 24.0101 18.5513 23.416 17.6091C22.8234 16.6654 21.579 16.3809 20.6368 16.975C17.8176 18.7483 14.188 18.7468 11.3703 16.975C10.4266 16.3809 9.18221 16.6654 8.59111 17.6091C7.99705 18.5513 8.28001 19.7957 9.22221 20.3898C10.4666 21.1705 11.8177 21.7246 13.2192 22.0445L9.37036 25.8919C8.58371 26.68 8.58371 27.9555 9.37184 28.7437C9.76591 29.1363 10.2815 29.3333 10.797 29.3333C11.3125 29.3333 11.8296 29.1363 12.2236 28.7437L16.0028 24.963L19.785 28.7437C20.5716 29.5303 21.8486 29.5303 22.6353 28.7437C23.4234 27.9555 23.4234 26.6785 22.6353 25.8919L18.788 22.0445ZM18.8524 9.54982C18.8524 7.97948 17.5754 6.70099 16.0036 6.70099C14.4332 6.70099 13.1547 7.97948 13.1547 9.54982C13.1547 11.1202 14.4332 12.3987 16.0036 12.3987C17.5754 12.3987 18.8524 11.1202 18.8524 9.54982Z" fill="#F2720D"/>
</svg>
