<svg width="40" height="40" viewBox="0 0 40 40" fill="none" xmlns="http://www.w3.org/2000/svg">
<path d="M20.0003 6.66699V8.33366M30.0003 26.667H33.3337M23.3337 26.667H20.0003V33.3337M20.0003 15.0003V20.0003M20.0003 20.0003H20.017M20.0003 20.0003H26.6837M26.667 33.3337H33.3337M6.66699 20.0003H13.3337M33.3337 20.0003H33.3503M8.33366 13.3337H11.667C12.109 13.3337 12.5329 13.1581 12.8455 12.8455C13.1581 12.5329 13.3337 12.109 13.3337 11.667V8.33366C13.3337 7.89163 13.1581 7.46771 12.8455 7.15515C12.5329 6.84259 12.109 6.66699 11.667 6.66699H8.33366C7.89163 6.66699 7.46771 6.84259 7.15515 7.15515C6.84259 7.46771 6.66699 7.89163 6.66699 8.33366V11.667C6.66699 12.109 6.84259 12.5329 7.15515 12.8455C7.46771 13.1581 7.89163 13.3337 8.33366 13.3337ZM28.3337 13.3337H31.667C32.109 13.3337 32.5329 13.1581 32.8455 12.8455C33.1581 12.5329 33.3337 12.109 33.3337 11.667V8.33366C33.3337 7.89163 33.1581 7.46771 32.8455 7.15515C32.5329 6.84259 32.109 6.66699 31.667 6.66699H28.3337C27.8916 6.66699 27.4677 6.84259 27.1551 7.15515C26.8426 7.46771 26.667 7.89163 26.667 8.33366V11.667C26.667 12.109 26.8426 12.5329 27.1551 12.8455C27.4677 13.1581 27.8916 13.3337 28.3337 13.3337ZM8.33366 33.3337H11.667C12.109 33.3337 12.5329 33.1581 12.8455 32.8455C13.1581 32.5329 13.3337 32.109 13.3337 31.667V28.3337C13.3337 27.8916 13.1581 27.4677 12.8455 27.1551C12.5329 26.8426 12.109 26.667 11.667 26.667H8.33366C7.89163 26.667 7.46771 26.8426 7.15515 27.1551C6.84259 27.4677 6.66699 27.8916 6.66699 28.3337V31.667C6.66699 32.109 6.84259 32.5329 7.15515 32.8455C7.46771 33.1581 7.89163 33.3337 8.33366 33.3337Z" stroke="black" stroke-width="3" stroke-linecap="round" stroke-linejoin="round"/>
</svg>
