<svg width="70" height="36" viewBox="0 0 70 36" fill="none" xmlns="http://www.w3.org/2000/svg">
<path fill-rule="evenodd" clip-rule="evenodd" d="M36.385 13.944C36.385 16.9615 39.1704 18.5862 41.0273 19.7468C43.1163 20.6753 43.8126 21.3716 43.8126 22.3001C43.8126 23.6927 42.1878 24.3891 40.563 24.3891C38.0098 24.3891 36.385 23.6927 35.2244 22.9964L34.296 27.6387C35.4566 28.335 37.7777 28.7992 40.3309 28.7992C45.9016 28.7992 49.6155 26.0139 49.6155 21.6037C49.6155 18.3541 46.8301 16.7293 44.7411 15.8009C43.3484 15.1045 41.9557 14.4082 42.1878 13.4798C42.1878 12.7834 42.8842 11.855 44.509 11.6229C45.2053 11.6229 47.2943 11.3907 49.8476 12.5513L50.776 8.14116C49.3833 7.67693 47.7586 7.2127 45.6695 7.2127C40.0988 6.98059 36.385 9.76595 36.385 13.944ZM59.5963 7.2127C58.6679 7.2127 57.7394 7.90904 57.2752 8.83749L49.1512 28.335H54.722L55.8825 25.0854H62.8459L63.5422 28.335H68.4166L64.0065 7.2127H59.5963ZM62.1496 20.9074L60.5248 13.0155L57.7394 20.9074H62.1496ZM29.6537 7.2127L25.2436 28.335H30.5822L34.9923 7.2127H29.6537ZM15.9591 21.6037L21.5298 7.2127H27.1005L18.2802 28.335H12.4774L8.06722 11.6229C7.8351 10.6944 7.60299 10.2302 6.67454 9.76594C5.28186 9.0696 3.19284 8.37327 1.33594 7.90904L1.56805 7.2127H10.8526C12.0131 7.2127 13.1737 7.90904 13.4058 9.30172L15.9591 21.6037Z" fill="url(#paint0_linear_190_1869)"/>
<defs>
<linearGradient id="paint0_linear_190_1869" x1="26.1386" y1="30.7527" x2="44.9959" y2="4.19454" gradientUnits="userSpaceOnUse">
<stop stop-color="#222357"/>
<stop offset="1" stop-color="#254AA5"/>
</linearGradient>
</defs>
</svg>
