<svg width="32" height="32" viewBox="0 0 32 32" fill="none" xmlns="http://www.w3.org/2000/svg">
<g clip-path="url(#clip0_190_1841)">
<path fill-rule="evenodd" clip-rule="evenodd" d="M26.3111 14.6926C26.6911 14.1766 26.9911 13.7633 27.2138 13.4513C28.8151 11.2113 29.5084 9.7806 29.2964 9.15659L29.2124 9.00993C29.1578 8.92326 29.0138 8.84193 28.7831 8.76993C28.5511 8.69659 28.2551 8.68459 27.8938 8.73259L23.8951 8.76193C23.8031 8.75259 23.7097 8.75526 23.6177 8.76993C23.5244 8.78459 23.4644 8.79926 23.4364 8.81259C23.4097 8.82859 23.3871 8.84059 23.3671 8.84993L23.3124 8.89393C23.2657 8.92193 23.2151 8.97393 23.1604 9.04726C23.1031 9.11926 23.0577 9.20459 23.0204 9.30326C22.5857 10.4806 22.0897 11.5766 21.5351 12.5886C21.1924 13.1926 20.8777 13.7166 20.5911 14.1593C20.3044 14.6033 20.0631 14.9286 19.8684 15.138C19.6751 15.3473 19.4991 15.5153 19.3417 15.642C19.1831 15.7686 19.0631 15.822 18.9804 15.8033C18.8977 15.7833 18.8177 15.7646 18.7444 15.7433C18.6151 15.6566 18.5111 15.538 18.4324 15.386C18.3524 15.2366 18.3004 15.0459 18.2724 14.8166C18.2444 14.5886 18.2284 14.3899 18.2231 14.2246C18.2191 14.0593 18.2217 13.8259 18.2311 13.5233C18.2404 13.2219 18.2444 13.0179 18.2444 12.9099C18.2444 12.5406 18.2511 12.1379 18.2657 11.7046C18.2791 11.2726 18.2911 10.9286 18.3004 10.6753C18.3097 10.4233 18.3137 10.1539 18.3137 9.8726C18.3137 9.58993 18.2977 9.36859 18.2657 9.20726C18.2324 9.04726 18.1844 8.89126 18.1191 8.74059C18.0537 8.58992 17.9591 8.47259 17.8351 8.38992C17.7097 8.30726 17.5537 8.24059 17.3697 8.19259C16.879 8.07526 16.2537 8.01259 15.495 8.00192C13.7737 7.98326 12.667 8.10059 12.1777 8.35259C11.983 8.46059 11.807 8.60726 11.6497 8.79126C11.483 9.00593 11.459 9.12326 11.579 9.14193C12.1364 9.22993 12.5284 9.43926 12.7604 9.76993L12.843 9.9446C12.9084 10.0726 12.9724 10.2966 13.0377 10.6179C13.1017 10.9379 13.1444 11.2939 13.163 11.6833C13.2097 12.3953 13.2097 13.0033 13.163 13.5099C13.1164 14.0153 13.0737 14.4099 13.031 14.6926C12.9884 14.9739 12.927 15.2033 12.8444 15.378C12.7604 15.5553 12.7044 15.662 12.6764 15.7006C12.6484 15.7393 12.6257 15.7633 12.607 15.774C12.487 15.822 12.3617 15.846 12.2324 15.846C12.103 15.846 11.9457 15.778 11.7604 15.6406C11.575 15.506 11.383 15.318 11.1844 15.0793C10.9857 14.8406 10.7604 14.5073 10.511 14.0779C10.2617 13.6499 10.0017 13.1433 9.73369 12.5593L9.51102 12.1353C9.37369 11.8633 9.18302 11.4673 8.94302 10.9459C8.70168 10.4246 8.48835 9.9206 8.30435 9.43393C8.22968 9.22993 8.11768 9.07393 7.97101 8.96593L7.90035 8.92193C7.85501 8.88326 7.78035 8.84193 7.67901 8.79926C7.57768 8.75392 7.47101 8.72326 7.35901 8.70326L3.555 8.73259C3.16566 8.73259 2.90299 8.82593 2.76299 9.00993L2.70833 9.09793C2.68033 9.14726 2.66699 9.22459 2.66699 9.33126C2.66699 9.43926 2.69499 9.56993 2.75099 9.72593C3.30566 11.0993 3.90966 12.4233 4.56167 13.6993C5.215 14.9739 5.78167 16.002 6.26301 16.7806C6.74434 17.5606 7.23368 18.2953 7.73501 18.9873C8.23501 19.6793 8.56568 20.1206 8.72702 20.3153C8.88968 20.5113 9.01635 20.6566 9.10835 20.754L9.45635 21.106C9.67769 21.3393 10.0044 21.6193 10.435 21.9446C10.8644 22.2713 11.3417 22.5926 11.8657 22.9086C12.387 23.226 12.9964 23.4833 13.691 23.6833C14.3844 23.8833 15.0604 23.9633 15.7177 23.9247H17.3137C17.6391 23.8953 17.8844 23.7887 18.0497 23.6033L18.1057 23.53C18.1431 23.4726 18.1777 23.382 18.2097 23.2606C18.2417 23.138 18.2591 23.0046 18.2591 22.8593C18.2497 22.4406 18.2791 22.062 18.3484 21.726C18.4191 21.39 18.4964 21.138 18.5844 20.966C18.6724 20.7966 18.7724 20.6526 18.8844 20.5353C18.9951 20.418 19.0724 20.3486 19.1204 20.3246C19.1657 20.3006 19.2031 20.2833 19.2311 20.2726C19.4524 20.1953 19.7137 20.27 20.0151 20.4993C20.3164 20.7286 20.5991 21.01 20.8617 21.346C21.1257 21.6833 21.4431 22.0593 21.8137 22.478C22.1831 22.898 22.5071 23.2086 22.7844 23.414L23.0631 23.5887C23.2471 23.706 23.4884 23.8127 23.7857 23.91C24.0804 24.0073 24.3404 24.0327 24.5631 23.9833L28.1178 23.9247C28.4684 23.9247 28.7418 23.8633 28.9364 23.742C29.1298 23.6207 29.2458 23.486 29.2831 23.3406C29.3204 23.194 29.3218 23.03 29.2898 22.8433C29.2578 22.6593 29.2244 22.53 29.1938 22.458C29.1604 22.3846 29.1298 22.3233 29.1018 22.274C28.6404 21.3993 27.7551 20.322 26.4498 19.0473L26.4218 19.018L26.4084 19.002L26.3951 18.9886H26.3804C25.7884 18.394 25.4137 17.9953 25.2564 17.79C24.9697 17.402 24.9044 17.006 25.0631 16.6073C25.1724 16.3046 25.5884 15.666 26.3111 14.6926Z" fill="#4A76A8"/>
</g>
<defs>
<clipPath id="clip0_190_1841">
<rect width="32" height="32" fill="white"/>
</clipPath>
</defs>
</svg>
