<svg width="32" height="32" viewBox="0 0 32 32" fill="none" xmlns="http://www.w3.org/2000/svg">
<path d="M16.0002 11.6671C13.607 11.6671 11.6669 13.6072 11.6669 16.0004C11.6669 18.3936 13.607 20.3337 16.0002 20.3337C18.3935 20.3337 20.3336 18.3936 20.3336 16.0004C20.3336 13.6072 18.3935 11.6671 16.0002 11.6671Z" fill="#FA6FDB"/>
<path fill-rule="evenodd" clip-rule="evenodd" d="M9.02629 4.10901C13.6238 3.59517 18.3767 3.59517 22.9742 4.10901C25.5054 4.39191 27.547 6.38628 27.8441 8.92635C28.3938 13.6264 28.3938 18.3744 27.8441 23.0744C27.547 25.6145 25.5054 27.6089 22.9742 27.8918C18.3767 28.4056 13.6238 28.4056 9.0263 27.8918C6.4951 27.6089 4.45351 25.6145 4.15642 23.0744C3.60671 18.3744 3.60671 13.6264 4.15642 8.92635C4.45351 6.38628 6.4951 4.39191 9.02629 4.10901ZM22.6669 8.00039C21.9305 8.00039 21.3336 8.59734 21.3336 9.33372C21.3336 10.0701 21.9305 10.6671 22.6669 10.6671C23.4033 10.6671 24.0002 10.0701 24.0002 9.33372C24.0002 8.59734 23.4033 8.00039 22.6669 8.00039ZM9.66691 16.0004C9.66691 12.5026 12.5024 9.66705 16.0002 9.66705C19.498 9.66705 22.3336 12.5026 22.3336 16.0004C22.3336 19.4982 19.498 22.3337 16.0002 22.3337C12.5024 22.3337 9.66691 19.4982 9.66691 16.0004Z" fill="#FA6FDB"/>
</svg>
