<svg width="24" height="25" viewBox="0 0 24 25" fill="none" xmlns="http://www.w3.org/2000/svg">
<path fill-rule="evenodd" clip-rule="evenodd" d="M6.06022 5.33641C7.6356 3.76102 9.77228 2.87598 12.0002 2.87598C14.2281 2.87598 16.3648 3.76102 17.9402 5.33641C19.5156 6.91179 20.4006 9.04847 20.4006 11.2764C20.4006 13.5043 19.5156 15.641 17.9402 17.2164L12.0002 23.1564L6.06022 17.2164C5.28011 16.4364 4.6613 15.5103 4.2391 14.4911C3.81691 13.472 3.59961 12.3796 3.59961 11.2764C3.59961 10.1732 3.81691 9.08086 4.2391 8.06167C4.6613 7.04248 5.28011 6.11643 6.06022 5.33641ZM12.0002 13.6764C12.6367 13.6764 13.2472 13.4235 13.6973 12.9735C14.1474 12.5234 14.4002 11.9129 14.4002 11.2764C14.4002 10.6399 14.1474 10.0294 13.6973 9.57935C13.2472 9.12926 12.6367 8.87641 12.0002 8.87641C11.3637 8.87641 10.7532 9.12926 10.3032 9.57935C9.85307 10.0294 9.60022 10.6399 9.60022 11.2764C9.60022 11.9129 9.85307 12.5234 10.3032 12.9735C10.7532 13.4235 11.3637 13.6764 12.0002 13.6764Z" fill="#186DE4"/>
</svg>
