<svg width="43" height="36" viewBox="0 0 43 36" fill="none" xmlns="http://www.w3.org/2000/svg">
<path d="M14.2969 30C20.9243 30 26.2969 24.6274 26.2969 18C26.2969 11.3726 20.9243 6 14.2969 6C7.66946 6 2.29688 11.3726 2.29688 18C2.29688 24.6274 7.66946 30 14.2969 30Z" fill="#F93232"/>
<path d="M28.6981 6C26.0581 6 23.5381 6.96 21.4981 8.4C21.0181 8.76 20.5381 9.12 20.1781 9.6H22.8181C23.1781 9.96 23.5381 10.32 23.8981 10.8H19.0981C18.8581 11.16 18.4981 11.64 18.2581 12H24.6181C24.8581 12.36 25.0981 12.84 25.2181 13.2H17.6581C17.5381 13.56 17.2981 14.04 17.1781 14.4H25.5781C25.6981 14.76 25.8181 15.24 25.9381 15.6H16.8181C16.6981 15.96 16.6981 16.44 16.5781 16.8H26.0581C26.0581 17.16 26.1781 17.64 26.1781 18H16.5781C16.5781 18.36 16.5781 18.84 16.6981 19.2H26.1781C26.1781 19.56 26.0581 20.04 25.9381 20.4H16.8181C16.9381 20.76 17.0581 21.24 17.1781 21.6H25.5781C25.4581 21.96 25.3381 22.44 25.0981 22.8H17.5381C17.7781 23.16 17.8981 23.64 18.1381 24H24.4981C24.2581 24.36 24.0181 24.84 23.6581 25.2H19.0981C19.4581 25.68 19.8181 26.04 20.1781 26.4H22.8181C22.4581 26.88 21.9781 27.24 21.4981 27.6C23.5381 29.16 25.9381 30 28.6981 30C35.2981 30 40.6981 24.6 40.6981 18C40.6981 11.4 35.2981 6 28.6981 6Z" fill="#FED049"/>
</svg>
