<svg xmlns="http://www.w3.org/2000/svg" width="83" height="36" viewBox="0 0 83 36" fill="none">
  <path d="M2.11719 27.1325V5.65549C2.11719 5.65549 9.91068 5.48383 10.6026 5.77758C11.2945 6.07132 12.4426 7.05801 12.8236 8.34315C12.8236 8.34315 15.7987 18.4105 15.9706 18.4105H16.4106C16.5824 18.4105 19.0026 9.13141 19.319 8.34315C19.6356 7.55488 20.5662 6.13536 21.82 5.80145C23.0737 5.46753 30.0812 5.64452 30.0812 5.64452V27.1325H23.2455V14.3945L23.23 14.3895C22.9821 14.3094 22.9459 14.2977 22.6895 14.3945L18.6649 27.1325H13.7516L9.67574 14.3935C9.44239 14.3298 9.31099 14.3236 9.07818 14.3935V27.1325H2.11719Z" fill="#0E754E"/>
  <path d="M33.2891 27.0675V5.69542H40.1503L40.2199 18.3663C40.4615 18.4528 40.5885 18.4527 40.7813 18.3663L45.6687 8.12237C46.2159 7.10168 46.7995 5.95065 47.9106 5.77368C49.0217 5.59669 55.2134 5.69542 55.2134 5.69542V27.0675H48.3226V14.5282C48.2126 14.4458 47.8076 14.4261 47.6687 14.5282C44.1437 22.494 42.4048 26.8828 40.387 27.0675C38.369 27.2525 33.2891 27.0675 33.2891 27.0675Z" fill="#0E754E"/>
  <path d="M74.2903 5.70312H57.8203C58.7825 10.5867 61.867 14.4564 66.7889 14.4564H80.7769C81.62 9.96411 77.4599 5.70312 74.2903 5.70312Z" fill="url(#paint0_linear_190_1877)"/>
  <path d="M80.4316 15.8164L57.8203 15.9334V27.1966H64.8649V20.7729H73.4725C76.5007 20.7729 79.1183 18.5476 80.4316 15.8164Z" fill="#0E754E"/>
  <defs>
    <linearGradient id="paint0_linear_190_1877" x1="59.6377" y1="10.4607" x2="79.9128" y2="10.0798" gradientUnits="userSpaceOnUse">
      <stop stop-color="#02AEFF"/>
      <stop offset="1" stop-color="#1E5DD8"/>
    </linearGradient>
  </defs>
</svg>