<svg width="32" height="32" viewBox="0 0 32 32" fill="none" xmlns="http://www.w3.org/2000/svg">
<path fill-rule="evenodd" clip-rule="evenodd" d="M24.6438 26.3863L24.6447 26.384L24.6679 26.326L28.6663 6.16725V6.10177C28.6663 5.5995 28.4807 5.16102 28.0768 4.89801C27.7234 4.66779 27.317 4.6514 27.0321 4.67303C26.7307 4.6959 26.4466 4.77112 26.2498 4.83373C26.1486 4.86595 26.0639 4.89699 26.0034 4.92046C25.973 4.93224 25.9483 4.94224 25.9304 4.94969L25.9128 4.9571L3.6197 13.7023L3.61356 13.7045C3.60152 13.7089 3.5856 13.7149 3.56637 13.7224C3.52803 13.7373 3.47584 13.7586 3.41454 13.7864C3.29416 13.841 3.12785 13.9252 2.95918 14.0407C2.67271 14.2368 2.12722 14.7013 2.21933 15.4376C2.29563 16.0475 2.71603 16.4348 2.99945 16.6353C3.15139 16.7428 3.29674 16.8203 3.40317 16.871C3.4571 16.8967 3.50292 16.9164 3.53703 16.9303C3.55414 16.9372 3.56844 16.9428 3.5795 16.947L3.59367 16.9523L3.60273 16.9556L7.50305 18.2687C7.48988 18.5134 7.51416 18.7629 7.57905 19.0091L9.53276 26.4203C9.76441 27.2991 10.5594 27.9112 11.4681 27.9105C12.2827 27.9099 13.0051 27.4171 13.3121 26.6819L16.3623 23.4205L21.6009 27.4368L21.6754 27.4693C22.1514 27.677 22.5961 27.7428 23.0026 27.6872C23.4086 27.6318 23.7313 27.4615 23.9736 27.2676C24.2121 27.0768 24.3755 26.8615 24.4783 26.6994C24.5305 26.617 24.5695 26.5446 24.5965 26.4901C24.61 26.4628 24.6207 26.4396 24.6287 26.4216L24.6388 26.3984L24.6423 26.3898L24.6438 26.3863ZM9.51292 18.4993C9.46851 18.3308 9.53822 18.153 9.68527 18.0597L22.9146 9.65844C22.9146 9.65844 23.6927 9.18605 23.6649 9.65844C23.6649 9.65844 23.8038 9.74186 23.3868 10.1308C22.9913 10.5003 13.9579 19.2217 13.0439 20.1042C12.9911 20.1551 12.9596 20.2136 12.941 20.2845L11.4666 25.9105L9.51292 18.4993Z" fill="#289FD9"/>
</svg>
