<svg xmlns="http://www.w3.org/2000/svg" width="32" height="33" viewBox="0 0 32 33" fill="none">
  <path d="M13.0751 10.4222L13.0754 10.4229C13.2493 10.8105 13.5385 11.5149 13.7705 12.0797L13.7739 12.0881C13.8652 12.3104 13.9477 12.5114 14.0121 12.6661C14.0443 12.7436 14.0715 12.8081 14.0926 12.8572C14.1031 12.8818 14.1117 12.9015 14.1184 12.9164C14.1257 12.9328 14.1284 12.9384 14.1279 12.9373M13.0751 10.4222L14.1568 13.9782C14.3649 13.5518 14.2495 13.1794 14.1279 12.9373M13.0751 10.4222C12.9221 10.0828 12.7324 9.8347 12.4791 9.68782M13.0751 10.4222L12.4791 9.68782M14.1279 12.9373C14.1279 12.9373 14.1279 12.9372 14.1278 12.9372L13.6811 13.1616L14.1279 12.9373ZM23.2611 21.4099L23.2599 21.4133C23.0568 21.9739 22.5159 22.4414 22.0283 22.7555C21.5341 23.0739 20.9465 23.3286 20.5145 23.3689M23.2611 21.4099L20.2873 22.8913L20.287 22.8913C19.7068 22.9615 18.9701 23.0507 16.3457 22.0176M23.2611 21.4099C23.4172 20.9689 23.497 20.5562 23.5254 20.2254M23.2611 21.4099L23.5254 20.2254M20.5145 23.3689L20.4681 22.871L20.515 23.3688C20.5148 23.3689 20.5147 23.3689 20.5145 23.3689ZM20.5145 23.3689C20.4624 23.3738 20.4094 23.3802 20.3471 23.3877C20.0347 23.4255 19.652 23.4706 19.0002 23.3613C18.367 23.2551 17.4904 23.0055 16.1627 22.4829M16.1627 22.4829L16.3457 22.0176M16.1627 22.4829C16.1627 22.4829 16.1626 22.4829 16.1626 22.4829L16.3457 22.0176M16.1627 22.4829C12.7842 21.1543 10.579 17.8947 10.1372 17.2416L10.1315 17.233L10.5456 16.9528L10.1314 17.233L10.09 17.1719C10.0782 17.1547 10.0743 17.1494 10.0747 17.15L10.0677 17.1405L10.0677 17.1405L10.0676 17.1404C9.96392 17.0017 9.5941 16.5068 9.24962 15.8261C8.90852 15.152 8.57058 14.254 8.57058 13.3127C8.57058 11.5307 9.46231 10.5845 9.84553 10.1795L9.84554 10.1795C9.86856 10.1551 9.88762 10.135 9.90446 10.1168C9.90447 10.1168 9.90447 10.1168 9.90447 10.1168L10.2711 10.4568L16.3457 22.0176M12.4791 9.68782C12.2352 9.54646 11.9958 9.54033 11.8723 9.53717M12.4791 9.68782L11.8723 9.53717M11.8723 9.53717C11.8689 9.53708 11.8656 9.53699 11.8623 9.53691L11.8723 9.53717ZM23.5254 20.2254C23.5395 20.0605 23.5415 19.9085 23.5312 19.7783M23.5254 20.2254L23.5312 19.7783M23.5312 19.7783C23.5231 19.6748 23.5026 19.5029 23.4176 19.3598L23.5312 19.7783ZM9.94197 27.5323C9.83046 27.4719 9.70017 27.4561 9.57747 27.4881L3.43435 29.0927C3.42438 29.0953 3.41973 29.0942 3.41728 29.0935C3.41336 29.0923 3.40771 29.0894 3.4022 29.0839C3.39669 29.0783 3.3939 29.0726 3.3928 29.0687C3.39211 29.0662 3.39106 29.0615 3.39379 29.0516L5.03461 23.0957C5.07021 22.9664 5.05243 22.8283 4.98524 22.7123C3.86613 20.78 3.27752 18.5889 3.27832 16.3589V16.3587C3.27832 9.35013 9.01471 3.64355 16.0555 3.64355C19.4785 3.64355 22.6826 4.96985 25.0952 7.37114C27.5071 9.77195 28.8329 12.9663 28.8329 16.3652C28.8329 23.3737 23.0965 29.0803 16.0556 29.0803H16.049C13.9097 29.0803 11.8083 28.5432 9.94197 27.5323ZM14.1202 14.054L14.1568 13.9783L13.1251 15.3625C13.1425 15.3425 13.1659 15.3186 13.2026 15.2821L13.2028 15.2818C13.3168 15.1683 13.4423 15.0166 13.5484 14.8885L13.5582 14.8766C13.6236 14.7975 13.6842 14.7243 13.7415 14.6586L13.7416 14.6585C13.9371 14.4339 14.0254 14.2506 14.116 14.0626L14.1202 14.054L14.1202 14.054ZM14.9427 17.6191C13.9799 16.766 13.3193 15.6976 13.1308 15.3727L23.4176 19.3596C23.3215 19.1978 23.1819 19.0975 23.0772 19.0335C22.9761 18.9718 22.856 18.9142 22.748 18.8625L22.7342 18.8559C22.6751 18.8275 22.6149 18.7987 22.5509 18.7668L22.5508 18.7667C22.3771 18.6803 21.8673 18.4299 21.361 18.1862C20.8691 17.9494 20.3405 17.6992 20.1549 17.63L20.1548 17.6299C20.0074 17.5749 19.7625 17.4841 19.501 17.5149C19.1871 17.5519 18.9582 17.7405 18.7926 17.9913C18.5806 18.3036 17.9489 19.0408 17.7411 19.282L17.7411 19.2821C17.7354 19.2887 17.7303 19.2942 17.726 19.2987C17.6996 19.2914 17.6582 19.2763 17.5973 19.246C17.5292 19.2121 17.4425 19.1747 17.3572 19.1379L17.3472 19.1336L17.1652 19.5553L17.3472 19.1336L17.346 19.1331C16.8799 18.932 15.9824 18.5447 14.9436 17.6199L14.9427 17.6191Z" fill="#65BC54" stroke="#65BC54" stroke-linejoin="round"/>
</svg>